PathFileType        4      (X/Y/Z)      Static.trc         
DataRate	CameraRate	NumFrames	NumMarkers	Units	OrigDataRate	OrigDataStartFrame	OrigNumFrames
100.0	100.0	8	33	mm	100.0	59	156
Frame#	Time	T2			T10			MANU			LASI			RASI			SACR			LTHI			LKAX			LKD1			LKD2			LKNE			LTIB			LANK			LMED			LHEE			LTOE			RTHI			RKAX			RKD1			RKD2			RKNE			RTIB			RANK			RMED			RHEE			RTOE			RHJC			LHJC			RKJC			LKJC			MASI			RAJC			LAJC			
		X1	Y1	Z1	X2	Y2	Z2	X3	Y3	Z3	X4	Y4	Z4	X5	Y5	Z5	X6	Y6	Z6	X7	Y7	Z7	X8	Y8	Z8	X9	Y9	Z9	X10	Y10	Z10	X11	Y11	Z11	X12	Y12	Z12	X13	Y13	Z13	X14	Y14	Z14	X15	Y15	Z15	X16	Y16	Z16	X17	Y17	Z17	X18	Y18	Z18	X19	Y19	Z19	X20	Y20	Z20	X21	Y21	Z21	X22	Y22	Z22	X23	Y23	Z23	X24	Y24	Z24	X25	Y25	Z25	X26	Y26	Z26	X27	Y27	Z27	X28	Y28	Z28	X29	Y29	Z29	X30	Y30	Z30	X31	Y31	Z31	X32	Y32	Z32	X33	Y33	Z33	
59	0.58	131.45595	1122.53869	-59.09004	107.33735	924.36988	-76.06821	244.96386	1050.07302	-46.64414	302.04199	736.54467	-149.30044	271.72317	740.4044	69.12617	165.54417	771.54195	-60.75664	306.63813	418.74117	-213.70821	315.15032	355.64246	-277.0563	407.5229	349.12233	-182.77721	310.18982	259.59863	-185.98278	314.13816	353.09791	-183.54387	203.3037	136.0116	-238.20674	156.66297	61.88452	-207.30482	157.48755	49.05479	-133.5096	95.14588	39.50882	-185.08262	268.67906	29.53127	-184.15397	300.20977	432.45494	113.12272	320.53952	361.5735	175.98928	409.65695	357.76292	68.32711	312.75907	266.16689	78.16587	313.49929	361.46857	78.05746	225.53704	144.54331	130.07472	174.15253	53.83535	102.69773	177.8561	57.04182	24.07952	118.57051	37.16111	79.84756	289.02541	29.67667	54.11786	217.14767	675.99773	32.20046	239.1651	673.1948	-126.42024	310.2009	361.41941	32.17589	313.64047	351.84675	-137.56358	286.88258	738.47453	-40.08714	172.38101	47.17711	64.23137	152.848	47.46747	-171.29399	
60	0.59	131.5022	1122.56989	-59.10357	107.33269	924.38605	-76.0721	245.00517	1050.067	-46.65811	302.06065	736.54516	-149.30767	271.71053	740.40087	69.10759	165.54685	771.53766	-60.74386	306.64453	418.73903	-213.71374	315.15247	355.63765	-277.04937	407.54183	349.12267	-182.77948	310.18626	259.58748	-185.97876	314.1457	353.0964	-183.53566	203.30197	136.01123	-238.21407	156.65286	61.88691	-207.30365	157.49869	49.04772	-133.52389	95.1334	39.51344	-185.08032	268.67662	29.52622	-184.1537	300.20363	432.4598	113.11838	320.53348	361.5871	175.97919	409.65968	357.76142	68.32655	312.78631	266.2012	78.16262	313.51714	361.47804	78.0512	225.53739	144.54152	130.07136	174.1245	53.81038	102.69535	177.83798	57.03311	24.09663	118.55659	37.15125	79.84328	289.00834	29.66188	54.12647	217.14345	675.99519	32.17429	239.18367	673.19517	-126.43864	310.22977	361.42694	32.16884	313.65067	351.84688	-137.55529	286.88559	738.47302	-40.10004	172.35653	47.1596	64.23912	152.84825	47.46506	-171.30095	
61	0.6	131.55214	1122.60211	-59.11582	107.33874	924.39272	-76.07532	245.04469	1050.0624	-46.66878	302.07337	736.54832	-149.31583	271.69515	740.39726	69.08851	165.5524	771.542	-60.73109	306.63654	418.73233	-213.71926	315.15007	355.63336	-277.04405	407.55042	349.11969	-182.78175	310.17878	259.5749	-185.97652	314.14644	353.09196	-183.52926	203.2982	136.01157	-238.22502	156.64207	61.88687	-207.30407	157.49525	49.03513	-133.53304	95.11658	39.51276	-185.07203	268.66967	29.52262	-184.1555	300.20107	432.4645	113.11446	320.53413	361.5992	175.96947	409.65951	357.76	68.32103	312.80974	266.22993	78.15702	313.53198	361.48608	78.04509	225.53301	144.53472	130.07134	174.08695	53.78125	102.69424	177.81272	57.01895	24.11522	118.5492	37.14708	79.84168	288.98361	29.63989	54.13652	217.13278	675.99679	32.14709	239.19347	673.20169	-126.45836	310.25109	361.43307	32.16227	313.65297	351.84237	-137.54889	286.88426	738.47279	-40.11366	172.3237	47.13721	64.24828	152.84088	47.45871	-171.30603	
62	0.61	131.61228	1122.62885	-59.13182	107.36802	924.38712	-76.08239	245.08296	1050.05962	-46.67663	302.07951	736.55379	-149.32552	271.68112	740.39602	69.07038	165.57333	771.55215	-60.7252	306.62017	418.7233	-213.72715	315.14633	355.62954	-277.04551	407.54686	349.11175	-182.78547	310.1733	259.56516	-185.97668	314.14283	353.08531	-183.52943	203.29536	136.01165	-238.23884	156.63548	61.88297	-207.30834	157.47351	49.01927	-133.53804	95.10561	39.50552	-185.0658	268.66186	29.52271	-184.16097	300.20462	432.4697	113.10961	320.54074	361.60779	175.96008	409.65371	357.75675	68.30998	312.82484	266.24573	78.15048	313.53961	361.48858	78.03895	225.52359	144.52353	130.07357	174.04875	53.75583	102.69443	177.78917	57.00183	24.12964	118.55006	37.14983	79.84234	288.95575	29.61352	54.14531	217.12151	676.00315	32.12253	239.1969	673.21291	-126.47717	310.25909	361.43273	32.15611	313.64942	351.83435	-137.54909	286.88031	738.47491	-40.12757	172.29178	47.11538	64.25594	152.82643	47.44877	-171.3108	
63	0.62	131.68527	1122.64659	-59.154	107.42459	924.37346	-76.09469	245.1221	1050.05848	-46.68354	302.08196	736.55995	-149.33795	271.67542	740.39961	69.05355	165.61459	771.56507	-60.72929	306.60584	418.71517	-213.73982	315.14615	355.6259	-277.05754	407.53639	349.0996	-182.79207	310.17517	259.56006	-185.97989	314.13977	353.0781	-183.53886	203.29531	136.00983	-238.25517	156.63589	61.87566	-207.31694	157.4387	49.00253	-133.54187	95.10698	39.49354	-185.06692	268.6578	29.52697	-184.17118	300.21639	432.47527	113.10308	320.55462	361.61232	175.95039	409.64457	357.75085	68.29387	312.83182	266.24578	78.14287	313.54127	361.48436	78.03195	225.51101	144.50918	130.07496	174.02297	53.74186	102.6953	177.77615	56.98633	24.13661	118.56131	37.15748	79.84365	288.93316	29.58876	54.15021	217.11741	676.01431	32.10327	239.19875	673.22594	-126.49345	310.25497	361.4244	32.14953	313.64496	351.82542	-137.55858	286.87869	738.47978	-40.1422	172.27197	47.10047	64.26015	152.80889	47.43666	-171.31692	
64	0.63	131.76767	1122.65648	-59.18112	107.50233	924.36116	-76.11046	245.16357	1050.05825	-46.69151	302.08458	736.56417	-149.35346	271.68349	740.40889	69.03819	165.66994	771.58034	-60.74301	306.60238	418.71027	-213.75794	315.15257	355.62263	-277.08004	407.52668	349.08502	-182.80145	310.18556	259.55861	-185.98668	314.14109	353.07177	-183.55648	203.29734	136.00437	-238.27291	156.64222	61.86739	-207.32786	157.40158	48.98668	-133.54684	95.11832	39.48111	-185.07451	268.659	29.53309	-184.1855	300.23662	432.48097	113.09572	320.57704	361.61382	175.94039	409.63668	357.74257	68.27495	312.83317	266.23231	78.13361	313.54119	361.47538	78.02392	225.49774	144.49398	130.073	174.01947	53.74304	102.69636	177.77723	56.97637	24.13643	118.5834	37.16693	79.84504	288.92277	29.57154	54.15044	217.12426	676.03017	32.09066	239.20165	673.23811	-126.50619	310.24433	361.41051	32.14226	313.6438	351.81766	-137.57627	286.88404	738.48653	-40.15763	172.27101	47.09634	64.2608	152.79311	47.42448	-171.3246	
65	0.64	131.85094	1122.66208	-59.20899	107.58714	924.3594	-76.12643	245.20677	1050.05853	-46.70183	302.0894	736.56468	-149.37154	271.70577	740.42316	69.02456	165.72446	771.6006	-60.76409	306.61252	418.70943	-213.78006	315.16433	355.61966	-277.10892	407.52306	349.07062	-182.81258	310.20145	259.55949	-185.99823	314.14742	353.06697	-183.57903	203.29927	135.99493	-238.28988	156.64995	61.86099	-207.33777	157.37163	48.97374	-133.55347	95.12943	39.47288	-185.08248	268.66374	29.53833	-184.20201	300.26258	432.48733	113.08912	320.60655	361.61443	175.93109	409.63188	357.73218	68.25611	312.83034	266.21045	78.12287	313.54195	361.46479	78.01567	225.48514	144.48096	130.0671	174.03756	53.75719	102.69697	177.78922	56.97279	24.13232	118.61268	37.17766	79.84768	288.92571	29.56545	54.14764	217.13923	676.05067	32.08438	239.20392	673.24863	-126.51557	310.23165	361.39467	32.13499	313.6475	351.81204	-137.59887	286.89758	738.49392	-40.17349	172.28679	47.10219	64.25919	152.7816	47.41471	-171.33249	
66	0.65	131.92624	1122.66616	-59.23239	107.6623	924.37308	-76.13991	245.24939	1050.05895	-46.71441	302.09577	736.5609	-149.39088	271.7374	740.44025	69.01308	165.76144	771.62836	-60.78947	306.63269	418.71199	-213.80262	315.17675	355.61541	-277.13755	407.52675	349.05904	-182.82386	310.21749	259.56119	-186.01466	314.1563	353.06313	-183.60212	203.29874	135.98288	-238.30309	156.65439	61.85834	-207.3442	157.35336	48.96696	-133.56021	95.13002	39.47126	-185.08454	268.66842	29.54078	-184.21757	300.28867	432.49456	113.08537	320.63776	361.61599	175.92456	409.62686	357.71833	68.23969	312.82191	266.18436	78.11271	313.54163	361.45391	78.00888	225.47415	144.47273	130.05946	174.06607	53.77786	102.69665	177.80524	56.97381	24.1289	118.64198	37.19182	79.85341	288.93692	29.57061	54.14517	217.15505	676.07488	32.08292	239.20135	673.2577	-126.52242	310.21665	361.37797	32.12927	313.65467	351.80848	-137.62197	286.91659	738.50057	-40.1889	172.31007	47.11378	64.25743	152.7743	47.40996	-171.33862	
